<?xml version="1.0"?>
<svg version="1.1" xmlns="http://www.w3.org/2000/svg" width="400" height="200" style="border: dashed 2px #aaa"><path fill="#078ae8" d="M29.616,103.36l-0.644-2.688s-1.316-0.448-3.136-0.448c-2.94,0-4.62,2.184-4.62,6.86c0,4.536,1.82,6.44,4.76,6.44c2.8,0,5.32-1.96,5.32-1.96l1.54,2.52s-2.94,3.052-7.336,3.052c-5.684,0-8.96-3.416-8.96-9.912c0-6.58,3.696-10.5,9.436-10.5c3.388,0,6.524,1.316,6.524,1.316l-0.14,5.32l-2.744,0z M42.62228,95.1l0,8.204c0.812-0.672,2.632-1.904,4.704-1.904c2.856,0,4.396,1.904,4.396,5.04l0,7.42l1.96,0.7l0,2.24l-7.616,0l0-2.24l1.456-0.672l0-6.776c0-1.4-0.56-2.24-1.848-2.24c-1.568,0-3.052,1.484-3.052,1.484l0,7.504l1.484,0.7l0,2.24l-7.924,0l0-2.24l2.24-0.7l0-15.736l-2.24-0.56l0-2.24z M59.04456,97.06c0-1.596,1.148-2.52,2.408-2.52c1.456,0,2.352,0.756,2.352,2.52c0,1.652-1.204,2.548-2.352,2.548c-1.512,0-2.408-0.896-2.408-2.548z M63.74856,113.86l1.96,0.7l0,2.24l-8.4,0l0-2.24l2.24-0.7l0-9.1l-2.24-0.7l0-2.24l6.44-0.14l0,12.18z M79.41484,113.216l1.008,2.128c-1.372,1.008-2.94,1.736-4.76,1.736c-3.22,0-4.144-2.24-4.144-5.46l0-6.44l-2.604,0l0-2.716l2.604-0.364l0-3.864l4.2-0.756l0,4.62l3.92,0l0,3.08l-3.92,0l0,6.16c0,1.792,0.308,2.52,1.484,2.52c0.756,0,1.848-0.448,2.212-0.644z M105.7914,103.36l-0.644-2.688s-1.316-0.448-3.136-0.448c-2.94,0-4.62,2.184-4.62,6.86c0,4.536,1.82,6.44,4.76,6.44c2.8,0,5.32-1.96,5.32-1.96l1.54,2.52s-2.94,3.052-7.336,3.052c-5.684,0-8.96-3.416-8.96-9.912c0-6.58,3.696-10.5,9.436-10.5c3.388,0,6.524,1.316,6.524,1.316l-0.14,5.32l-2.744,0z M118.79768,95.1l0,8.204c0.812-0.672,2.632-1.904,4.704-1.904c2.856,0,4.396,1.904,4.396,5.04l0,7.42l1.96,0.7l0,2.24l-7.616,0l0-2.24l1.456-0.672l0-6.776c0-1.4-0.56-2.24-1.848-2.24c-1.568,0-3.052,1.484-3.052,1.484l0,7.504l1.484,0.7l0,2.24l-7.924,0l0-2.24l2.24-0.7l0-15.736l-2.24-0.56l0-2.24z M143.03196,116.8l-0.504-1.82s-2.156,2.1-4.536,2.1c-2.716,0-4.368-1.596-4.368-4.396c0-3.304,2.492-4.62,6.748-4.62l1.96,0l0-1.54c0-1.428-0.756-2.044-2.156-2.044c-1.428,0-2.464,0.42-2.464,0.42l-0.42,1.764l-2.52,0l-0.196-4.144s3.388-1.12,6.076-1.12c4.256,0,5.88,1.484,5.88,5.544l0,6.916l2.1,0.504l0,2.24z M142.33196,110.444l-1.596,0c-2.184,0-3.052,0.56-3.052,1.82c0,1.064,0.588,1.68,1.652,1.68c1.484,0,2.996-1.624,2.996-1.624l0-1.876z M162.19824,113.216l1.008,2.128c-1.372,1.008-2.94,1.736-4.76,1.736c-3.22,0-4.144-2.24-4.144-5.46l0-6.44l-2.604,0l0-2.716l2.604-0.364l0-3.864l4.2-0.756l0,4.62l3.92,0l0,3.08l-3.92,0l0,6.16c0,1.792,0.308,2.52,1.484,2.52c0.756,0,1.848-0.448,2.212-0.644z"/><path fill="#" d=""/></svg>
